<?xml version="1.0" encoding="iso-8859-1"?>
<!-- Generator: Adobe Illustrator 19.0.0, SVG Export Plug-In . SVG Version: 6.00 Build 0)  -->
<svg version="1.1" id="Layer_1" xmlns="http://www.w3.org/2000/svg" xmlns:xlink="http://www.w3.org/1999/xlink" x="0px" y="0px"
	 viewBox="0 0 512 512" style="enable-background:new 0 0 512 512;" xml:space="preserve">
<polygon style="fill:#82889D;" points="300.138,357.517 444.69,237.241 467.862,260.414 300.138,436.966 "/>
<path style="fill:#959CB3;" d="M444.186,245.122l12.484,12.484c13.79,13.79,36.147,13.79,49.937,0l5.393-5.393l-62.421-62.421
	l-5.393,5.393C430.397,208.975,430.397,231.332,444.186,245.122z"/>
<path style="fill:#82889D;" d="M44.138,225.103h26.483v-17.655H44.138C19.801,207.448,0,227.25,0,251.586v35.31
	c0,34.073,27.72,61.793,61.793,61.793h8.828v-17.655h-8.828c-24.337,0-44.138-19.801-44.138-44.138v-35.31
	C17.655,236.983,29.535,225.103,44.138,225.103z"/>
<g>
	<path style="fill:#AFB9D2;" d="M300.138,348.69H70.621c-4.875,0-8.828-3.953-8.828-8.828V207.448h247.172v132.414
		C308.966,344.737,305.013,348.69,300.138,348.69z"/>
	<path style="fill:#AFB9D2;" d="M291.31,463.448H79.448c-9.751,0-17.655-7.904-17.655-17.655v-35.31
		c0-4.875,3.953-8.828,8.828-8.828h229.517c4.875,0,8.828,3.953,8.828,8.828v35.31C308.966,455.544,301.062,463.448,291.31,463.448z
		"/>
</g>
<g>
	<path style="fill:#959CB3;" d="M300.138,348.69H70.621c-4.875,0-8.828,3.953-8.828,8.828l0,0c0,4.875,3.953,8.828,8.828,8.828
		h229.517c4.875,0,8.828-3.953,8.828-8.828l0,0C308.966,352.642,305.013,348.69,300.138,348.69z"/>
	<path style="fill:#959CB3;" d="M300.138,384H70.621c-4.875,0-8.828,3.953-8.828,8.828l0,0c0,4.875,3.953,8.828,8.828,8.828h229.517
		c4.875,0,8.828-3.953,8.828-8.828l0,0C308.966,387.953,305.013,384,300.138,384z"/>
</g>
<path style="fill:#AFB9D2;" d="M300.138,366.345H70.621c-4.875,0-8.828,3.953-8.828,8.828l0,0c0,4.875,3.953,8.828,8.828,8.828
	h229.517c4.875,0,8.828-3.953,8.828-8.828l0,0C308.966,370.297,305.013,366.345,300.138,366.345z"/>
<path style="fill:#959CB3;" d="M308.966,207.448H61.793c-4.875,0-8.828-3.953-8.828-8.828v-8.828c0-4.875,3.953-8.828,8.828-8.828
	h247.172c4.875,0,8.828,3.953,8.828,8.828v8.828C317.793,203.496,313.841,207.448,308.966,207.448z"/>
<path style="fill:#82889D;" d="M189.793,216.276h-8.828c-4.875,0-8.828-3.953-8.828-8.828V57.379c0-4.875,3.953-8.828,8.828-8.828
	h8.828c4.875,0,8.828,3.953,8.828,8.828v150.069C198.621,212.323,194.668,216.276,189.793,216.276z"/>
<g>
	<path style="fill:#A2AAC2;" d="M123.586,339.862V207.448H61.793v132.414c0,4.875,3.953,8.828,8.828,8.828h61.793
		C127.539,348.69,123.586,344.737,123.586,339.862z"/>
	<path style="fill:#A2AAC2;" d="M123.586,445.793v-35.31c0-4.875,3.953-8.828,8.828-8.828H70.621c-4.875,0-8.828,3.953-8.828,8.828
		v35.31c0,9.75,7.905,17.655,17.655,17.655h61.793C131.491,463.448,123.586,455.543,123.586,445.793z"/>
	<path style="fill:#A2AAC2;" d="M123.586,375.172c0-4.875,3.953-8.828,8.828-8.828H70.621c-4.875,0-8.828,3.953-8.828,8.828
		S65.746,384,70.621,384h61.793C127.539,384,123.586,380.047,123.586,375.172z"/>
</g>
<g>
	<path style="fill:#82889D;" d="M123.586,357.517c0-4.875,3.953-8.828,8.828-8.828H70.621c-4.875,0-8.828,3.953-8.828,8.828
		s3.953,8.828,8.828,8.828h61.793C127.539,366.345,123.586,362.392,123.586,357.517z"/>
	<path style="fill:#82889D;" d="M123.586,392.828c0-4.875,3.953-8.828,8.828-8.828H70.621c-4.875,0-8.828,3.953-8.828,8.828
		s3.953,8.828,8.828,8.828h61.793C127.539,401.655,123.586,397.703,123.586,392.828z"/>
	<path style="fill:#82889D;" d="M114.759,198.621v-8.828c0-4.875,3.953-8.828,8.828-8.828H61.793c-4.875,0-8.828,3.953-8.828,8.828
		v8.828c0,4.875,3.953,8.828,8.828,8.828h61.793C118.711,207.448,114.759,203.496,114.759,198.621z"/>
</g>
<path style="fill:#C7CFE2;" d="M282.483,251.586L282.483,251.586c-4.875,0-8.828-3.953-8.828-8.828v-8.828
	c0-4.875,3.953-8.828,8.828-8.828l0,0c4.875,0,8.828,3.953,8.828,8.828v8.828C291.31,247.634,287.358,251.586,282.483,251.586z"/>
<path style="fill:#BBC4DA;" d="M282.483,331.034L282.483,331.034c-4.875,0-8.828-3.953-8.828-8.828v-44.138
	c0-4.875,3.953-8.828,8.828-8.828l0,0c4.875,0,8.828,3.953,8.828,8.828v44.138C291.31,327.082,287.358,331.034,282.483,331.034z"/>
<g>
</g>
<g>
</g>
<g>
</g>
<g>
</g>
<g>
</g>
<g>
</g>
<g>
</g>
<g>
</g>
<g>
</g>
<g>
</g>
<g>
</g>
<g>
</g>
<g>
</g>
<g>
</g>
<g>
</g>
</svg>
